<svg xmlns="http://www.w3.org/2000/svg" viewBox="0 0 64 64">
  <!-- Planeswalker symbol (Scryfall's PW.svg, like static/symbols) over W U B R G
       stripes, left to right and tilted, in the colors of the mana symbols. -->
  <defs><clipPath id="c"><rect width="64" height="64" rx="12"/></clipPath></defs>
  <g clip-path="url(#c)">
    <g transform="rotate(20 32 32)">
      <rect x="-30" y="-30" width="40" height="124" fill="#F8F6D8"/>
      <rect x="9.8" y="-30" width="15.3" height="124" fill="#C1D7E9"/>
      <rect x="24.6" y="-30" width="15.3" height="124" fill="#CAC5C0"/>
      <rect x="39.4" y="-30" width="15.3" height="124" fill="#E49977"/>
      <rect x="54.2" y="-30" width="40" height="124" fill="#A3C095"/>
    </g>
  </g>
  <path transform="translate(17.4 5) scale(0.54)" fill="#0D0F0F" stroke="#F8F6D8"
        stroke-width="5" paint-order="stroke" stroke-linejoin="round"
        d="M0 50.247l.156-1.969h-.061l.061-.032 2.059-26.239s1.026 18.147 4.085 23.392c1.313-.519 2.647-.984 4.002-1.403 3.306-8.657 4.467-34.379 4.467-34.379s.772 23.434 3.681 32.529c1.595-.239 3.218-.407 4.872-.51 3.007-11.188 3.824-41.636 3.824-41.636s.991 30.521 3.953 41.673c1.576.114 3.127.292 4.653.528 2.873-9.06 4.024-32.597 4.024-32.597s.931 25.864 3.941 34.449c1.319.409 2.617.871 3.89 1.376 3.338-5.179 4.513-23.388 4.513-23.388l1.592 26.224.067.034h-.063l.118 1.947s-26.689 8.691-26.689 49.485c0-40.601-27.146-49.485-27.146-49.485"/>
</svg>
